<svg xmlns="http://www.w3.org/2000/svg" viewBox="0 0 200 200" width="200" height="200">
  <defs>
    <linearGradient id="gearGrad2" x1="0%" y1="0%" x2="100%" y2="100%">
      <stop offset="0%" style="stop-color:#FFCC00"/>
      <stop offset="100%" style="stop-color:#F97316"/>
    </linearGradient>
  </defs>
  <circle cx="100" cy="100" r="85" fill="#0A0A0A" stroke="url(#gearGrad2)" stroke-width="14"/>
  <g stroke="url(#gearGrad2)" stroke-width="12" stroke-linecap="round">
    <line x1="100" y1="6" x2="100" y2="2" transform="rotate(0,100,100)"/>
    <line x1="100" y1="6" x2="100" y2="2" transform="rotate(30,100,100)"/>
    <line x1="100" y1="6" x2="100" y2="2" transform="rotate(60,100,100)"/>
    <line x1="100" y1="6" x2="100" y2="2" transform="rotate(90,100,100)"/>
    <line x1="100" y1="6" x2="100" y2="2" transform="rotate(120,100,100)"/>
    <line x1="100" y1="6" x2="100" y2="2" transform="rotate(150,100,100)"/>
    <line x1="100" y1="6" x2="100" y2="2" transform="rotate(180,100,100)"/>
    <line x1="100" y1="6" x2="100" y2="2" transform="rotate(210,100,100)"/>
    <line x1="100" y1="6" x2="100" y2="2" transform="rotate(240,100,100)"/>
    <line x1="100" y1="6" x2="100" y2="2" transform="rotate(270,100,100)"/>
    <line x1="100" y1="6" x2="100" y2="2" transform="rotate(300,100,100)"/>
    <line x1="100" y1="6" x2="100" y2="2" transform="rotate(330,100,100)"/>
  </g>
  <circle cx="100" cy="100" r="62" fill="#0A0A0A" stroke="url(#gearGrad2)" stroke-width="6"/>
  <text x="100" y="114" font-family="'Barlow Condensed', 'Arial Black', sans-serif" font-size="42" font-weight="900" fill="#FFCC00" text-anchor="middle" letter-spacing="2">EMC</text>
  <path d="M75,50 Q110,20 140,55" fill="none" stroke="#F97316" stroke-width="4" stroke-linecap="round"/>
  <path d="M65,60 Q40,40 35,72" fill="none" stroke="#FFCC00" stroke-width="3" stroke-linecap="round"/>
  <circle cx="100" cy="100" r="48" fill="none" stroke="#222222" stroke-width="1"/>
  <circle cx="100" cy="100" r="35" fill="none" stroke="#222222" stroke-width="1"/>
</svg>