<svg xmlns="http://www.w3.org/2000/svg" viewBox="0 0 600 220" width="600" height="220">
  <defs>
    <linearGradient id="gearGradW" x1="0%" y1="0%" x2="100%" y2="100%">
      <stop offset="0%" style="stop-color:#FFCC00"/>
      <stop offset="100%" style="stop-color:#F97316"/>
    </linearGradient>
  </defs>
  
  <!-- Icon -->
  <g transform="translate(80,110)">
    <circle cx="0" cy="0" r="50" fill="none" stroke="#FFCC00" stroke-width="12" opacity="0.95"/>
    <g stroke="#FFCC00" stroke-width="10" stroke-linecap="round">
      <line x1="0" y1="-58" x2="0" y2="-68" transform="rotate(0)"/>
      <line x1="0" y1="-58" x2="0" y2="-68" transform="rotate(30)"/>
      <line x1="0" y1="-58" x2="0" y2="-68" transform="rotate(60)"/>
      <line x1="0" y1="-58" x2="0" y2="-68" transform="rotate(90)"/>
      <line x1="0" y1="-58" x2="0" y2="-68" transform="rotate(120)"/>
      <line x1="0" y1="-58" x2="0" y2="-68" transform="rotate(150)"/>
      <line x1="0" y1="-58" x2="0" y2="-68" transform="rotate(180)"/>
      <line x1="0" y1="-58" x2="0" y2="-68" transform="rotate(210)"/>
      <line x1="0" y1="-58" x2="0" y2="-68" transform="rotate(240)"/>
      <line x1="0" y1="-58" x2="0" y2="-68" transform="rotate(270)"/>
      <line x1="0" y1="-58" x2="0" y2="-68" transform="rotate(300)"/>
      <line x1="0" y1="-58" x2="0" y2="-68" transform="rotate(330)"/>
    </g>
    <circle cx="0" cy="0" r="34" fill="#FFFFFF" stroke="#FFCC00" stroke-width="4"/>
    <text x="0" y="12" font-family="'Barlow Condensed', 'Arial Black', sans-serif" font-size="36" font-weight="900" fill="#0A0A0A" text-anchor="middle" letter-spacing="2">EC</text>
    <path d="M-8,-48 Q20,-70 40,-52" fill="none" stroke="#F97316" stroke-width="3" stroke-linecap="round" opacity="0.8"/>
    <path d="M-15,-42 Q-38,-55 -42,-30" fill="none" stroke="#0A0A0A" stroke-width="2.5" stroke-linecap="round" opacity="0.5"/>
  </g>
  
  <!-- Text -->
  <g transform="translate(195,85)">
    <text font-family="'Barlow Condensed', 'Arial Black', sans-serif" font-size="52" font-weight="900" letter-spacing="6" fill="#FFFFFF">ENERGY</text>
    <text x="0" y="45" font-family="'Barlow Condensed', 'Arial Black', sans-serif" font-size="28" font-weight="600" letter-spacing="12" fill="#FFCC00">CONTROL</text>
    <text x="0" y="74" font-family="'Inter', Arial, sans-serif" font-size="10" font-weight="500" letter-spacing="8" fill="rgba(255,255,255,0.5)">PREMIUM AFTERMARKET PARTS</text>
  </g>
</svg>